# xmcd
#
# Track frame offsets:
# 150
# 23049
# 45035
# 63551
# 83911
# 101951
# 121435
# 135033
# 155046
# 177837
# 196390
# 211534
# 227446
#
# Disc length: 3316 seconds
#
#
# Revision: 6
# Processed by: cddbd v1.5.1PL2 Copyright (c) Steve Scherf et al.
# Submitted via: FreeRIP 2.942 
#
DISCID=9d0cf20d
DTITLE=Gloria Estefan - Alma Caribeña
DYEAR=2000
DGENRE=Latin
TTITLE0=Por Un Beso
TTITLE1=Punto De Referencia
TTITLE2=Dame Otra Oportunidad
TTITLE3=Como Me Duele Perderte
TTITLE4=Te Tengo A Ti
TTITLE5=Tres Gotas De Agua Bendita
TTITLE6=Nuestra Felicidad
TTITLE7=La Flor Y Tu Amor
TTITLE8=Me Voy
TTITLE9=Sólo Por Tu Amor
TTITLE10=Tengo Que Decirte Algo
TTITLE11=No Me Dejes De Querer
TTITLE12=No Me Dejes De Querer ("Flores" Del Caribe Mix)
EXTD=YEAR: 2000
EXTT0=
EXTT1=
EXTT2=
EXTT3=
EXTT4=
EXTT5=
EXTT6=
EXTT7=
EXTT8=
EXTT9=
EXTT10=
EXTT11=
EXTT12=
PLAYORDER=
